<svg width="23" height="10" viewBox="0 0 23 10" fill="none" xmlns="http://www.w3.org/2000/svg">
<path d="M2.26485 3.13199C2.22241 3.13199 2.2118 3.10799 2.23302 3.07199L2.45581 2.74799C2.47703 2.71199 2.53007 2.68799 2.57251 2.68799H6.35993C6.40237 2.68799 6.41298 2.72399 6.39176 2.75999L6.21141 3.07199C6.19019 3.10799 6.13714 3.14399 6.10532 3.14399L2.26485 3.13199Z" fill="#00ACD7"/>
<path d="M0.662859 4.23599C0.620422 4.23599 0.609813 4.21199 0.631031 4.17599L0.853821 3.85199C0.875039 3.81599 0.928085 3.79199 0.970521 3.79199H5.80824C5.85068 3.79199 5.8719 3.82799 5.86129 3.86399L5.77642 4.15199C5.76581 4.19999 5.72337 4.22399 5.68093 4.22399L0.662859 4.23599Z" fill="#00ACD7"/>
<path d="M3.23024 5.34C3.18781 5.34 3.1772 5.304 3.19841 5.268L3.34694 4.968C3.36816 4.932 3.4106 4.896 3.45303 4.896H5.57484C5.61728 4.896 5.63849 4.932 5.63849 4.98L5.61728 5.268C5.61728 5.316 5.57484 5.352 5.54301 5.352L3.23024 5.34Z" fill="#00ACD7"/>
<path d="M14.2424 2.91587C13.5741 3.10787 13.1179 3.25187 12.4601 3.44387C12.301 3.49187 12.2904 3.50387 12.1524 3.32387C11.9933 3.11987 11.8766 2.98787 11.6538 2.86787C10.9855 2.49587 10.3383 2.60387 9.73359 3.04787C9.01217 3.57587 8.64085 4.35587 8.65146 5.32787C8.66207 6.28787 9.24557 7.07987 10.0837 7.21187C10.8051 7.31987 11.4098 7.03187 11.8872 6.41987C11.9827 6.28787 12.0676 6.14387 12.1737 5.97587C11.7917 5.97587 11.3143 5.97587 10.1261 5.97587C9.90333 5.97587 9.85028 5.81987 9.92455 5.61587C10.0625 5.24387 10.3171 4.61987 10.4656 4.30787C10.4974 4.23587 10.5717 4.11587 10.7308 4.11587C11.2719 4.11587 13.2664 4.11587 14.5925 4.11587C14.5713 4.43987 14.5713 4.76387 14.5289 5.08787C14.4122 5.95187 14.1257 6.74387 13.6589 7.43987C12.8951 8.57987 11.8978 9.28787 10.6354 9.47987C9.59567 9.63587 8.63024 9.40787 7.78152 8.68787C6.99645 8.01587 6.55087 7.12787 6.43417 6.02387C6.29626 4.71587 6.63575 3.53987 7.33594 2.50787C8.08918 1.39187 9.08643 0.683869 10.3065 0.431869C11.3037 0.227869 12.2585 0.359869 13.1179 1.01987C13.6801 1.43987 14.0833 2.01587 14.3485 2.71187C14.4122 2.81987 14.3697 2.87987 14.2424 2.91587Z" fill="#00ACD7"/>
<path d="M17.754 9.55208C16.7886 9.52808 15.908 9.21608 15.1654 8.49608C14.5395 7.88408 14.1469 7.10408 14.0196 6.18008C13.8287 4.82408 14.1575 3.62408 14.8789 2.55608C15.6534 1.40408 16.587 0.804079 17.8495 0.552079C18.9316 0.336079 19.9501 0.456079 20.8731 1.16408C21.7112 1.81208 22.231 2.68808 22.3689 3.84008C22.5493 5.46008 22.1355 6.78008 21.1489 7.90808C20.4487 8.71208 19.5894 9.21608 18.6027 9.44408C18.3163 9.50408 18.0298 9.51608 17.754 9.55208ZM20.2789 4.70408C20.2683 4.54808 20.2683 4.42808 20.2471 4.30808C20.0562 3.12008 19.0907 2.44808 18.0829 2.71208C17.0962 2.96408 16.4597 3.67208 16.2263 4.80008C16.0353 5.73608 16.4385 6.68408 17.2023 7.06808C17.7858 7.35608 18.3693 7.32008 18.9316 6.99608C19.7697 6.50408 20.2259 5.73608 20.2789 4.70408Z" fill="#00ACD7"/>
</svg>
